<svg width="14" height="18" viewBox="0 0 14 18" fill="none" xmlns="http://www.w3.org/2000/svg">
<path fill-rule="evenodd" clip-rule="evenodd" d="M0 2C0 0.89543 0.895431 0 2 0H12C13.1046 0 14 0.895431 14 2V17C14 17.388 13.7755 17.741 13.4242 17.9056C13.0728 18.0702 12.6579 18.0166 12.3598 17.7682L7 13.3017L1.64018 17.7682C1.3421 18.0166 0.927229 18.0702 0.575845 17.9056C0.22446 17.741 0 17.388 0 17V2ZM12 2H2V14.865L6.35982 11.2318C6.73066 10.9227 7.26934 10.9227 7.64018 11.2318L12 14.865V2Z" fill="black"/>
</svg>
