<svg width="77" height="35" viewBox="0 0 77 35" fill="none" xmlns="http://www.w3.org/2000/svg">
<path d="M5.01349 28.6364H11.9753V25.4546H5.01349C4.45985 25.4546 3.94122 25.2159 3.59441 24.8023C3.25713 24.4014 3.11713 23.8986 3.20303 23.3927L3.72167 20.3414C4.2944 16.9591 7.11668 14.2991 10.588 13.8727L15.1921 12.9341C17.098 12.5427 18.8862 11.8077 20.5058 10.745L28.0849 5.77818C30.6749 4.07909 33.6912 3.18182 36.8062 3.18182H49.7403C51.8817 3.18182 54.004 3.87546 55.7158 5.13864L59.5403 7.95773C61.3731 9.31001 63.5272 10.2582 65.7735 10.6973L71.6122 11.8459C72.519 12.0273 73.1776 12.8068 73.1776 13.7009V22.4636C73.1776 24.1118 71.7999 25.4546 70.1103 25.4546H66.814V28.6364H70.1103C73.5563 28.6364 76.3594 25.8682 76.3594 22.4668V13.7041C76.3594 11.2923 74.6222 9.19864 72.2294 8.73091L66.3908 7.58228C64.6026 7.23228 62.8876 6.47818 61.4303 5.40273L57.6026 2.57727C55.3467 0.916364 52.5562 0 49.7403 0H36.8094C33.0708 0 29.453 1.07546 26.3412 3.115L18.7621 8.08182C17.483 8.92182 16.064 9.50409 14.5558 9.81273L10.0789 10.7323C5.34759 11.3082 1.39259 15.0468 0.587585 19.8068L0.0689468 22.855C-0.172867 24.2836 0.228035 25.7377 1.16667 26.8514C2.11803 27.9873 3.52122 28.6364 5.01349 28.6364Z" fill="white"/>
<path d="M62.0411 35C66.4257 35 69.9957 31.4332 69.9957 27.0454C69.9957 22.6577 66.4257 19.0909 62.0411 19.0909C57.6566 19.0909 54.0866 22.6577 54.0866 27.0454C54.0866 31.4332 57.6566 35 62.0411 35ZM62.0411 22.2727C64.6725 22.2727 66.8139 24.4141 66.8139 27.0454C66.8139 29.6768 64.6725 31.8182 62.0411 31.8182C59.4098 31.8182 57.2684 29.6768 57.2684 27.0454C57.2684 24.4141 59.4098 22.2727 62.0411 22.2727Z" fill="white"/>
<path d="M17.4956 35C21.8834 35 25.4502 31.4332 25.4502 27.0454C25.4502 22.6577 21.8834 19.0909 17.4956 19.0909C13.1079 19.0909 9.5411 22.6577 9.5411 27.0454C9.5411 31.4332 13.1079 35 17.4956 35ZM17.4956 22.2727C20.127 22.2727 22.2684 24.4141 22.2684 27.0454C22.2684 29.6768 20.127 31.8182 17.4956 31.8182C14.8643 31.8182 12.7229 29.6768 12.7229 27.0454C12.7229 24.4141 14.8643 22.2727 17.4956 22.2727Z" fill="white"/>
<path d="M22.9175 25.4545H55.1748V28.6363H22.9175V25.4545Z" fill="white"/>
</svg>
