<svg width="20" height="14" viewBox="0 0 20 14" fill="none" xmlns="http://www.w3.org/2000/svg">
<path fill-rule="evenodd" clip-rule="evenodd" d="M0 3C0 1.34315 1.34315 0 3 0H17C18.6569 0 20 1.34315 20 3V11C20 12.6569 18.6569 14 17 14H3C1.34315 14 0 12.6569 0 11V3ZM3 2C2.44772 2 2 2.44772 2 3V11C2 11.5523 2.44772 12 3 12H17C17.5523 12 18 11.5523 18 11V3C18 2.44772 17.5523 2 17 2H3Z" fill="black"/>
<path fill-rule="evenodd" clip-rule="evenodd" d="M19 6H1V4H19V6Z" fill="black"/>
<path fill-rule="evenodd" clip-rule="evenodd" d="M10 10H4V8H10V10Z" fill="black"/>
</svg>
