<svg width="18" height="20" viewBox="0 0 18 20" fill="none" xmlns="http://www.w3.org/2000/svg">
<path fill-rule="evenodd" clip-rule="evenodd" d="M9 2C7.89543 2 7 2.89543 7 4C7 5.10457 7.89543 6 9 6C10.1046 6 11 5.10457 11 4C11 2.89543 10.1046 2 9 2ZM5 4C5 1.79086 6.79086 0 9 0C11.2091 0 13 1.79086 13 4C13 6.20914 11.2091 8 9 8C6.79086 8 5 6.20914 5 4Z" fill="white"/>
<path fill-rule="evenodd" clip-rule="evenodd" d="M2.07626 15.0074C2.51644 15.9692 3.41701 16.6946 4.63462 17.2019C5.98222 17.7634 7.59435 18 9 18C10.4056 18 12.0178 17.7634 13.3654 17.2019C14.583 16.6946 15.4836 15.9692 15.9237 15.0074C15.4696 14.0901 14.4123 13.3454 13.016 12.8083C11.508 12.2283 9.87991 12 9 12C8.12009 12 6.49198 12.2283 4.98398 12.8083C3.58772 13.3454 2.53038 14.0901 2.07626 15.0074ZM4.26602 10.9417C6.00802 10.2717 7.87991 10 9 10C10.1201 10 11.992 10.2717 13.734 10.9417C15.4342 11.5956 17.302 12.7436 17.9487 14.6838C18.0171 14.889 18.0171 15.111 17.9487 15.3162C17.3235 17.1918 15.784 18.3608 14.1346 19.0481C12.4822 19.7366 10.5944 20 9 20C7.40565 20 5.51778 19.7366 3.86538 19.0481C2.21599 18.3608 0.676512 17.1918 0.0513167 15.3162C-0.0171056 15.111 -0.0171056 14.889 0.0513167 14.6838C0.698047 12.7436 2.56582 11.5956 4.26602 10.9417Z" fill="white"/>
</svg>
