<svg width="46" height="46" viewBox="0 0 46 46" fill="none" xmlns="http://www.w3.org/2000/svg">
<path d="M10.6636 0H4.80386C2.15076 0 0 2.15076 0 4.80386V10.666C0 13.3191 2.15076 15.4699 4.80386 15.4699H10.666C13.3191 15.4699 15.4699 13.3191 15.4699 10.666V4.80386C15.4675 2.15076 13.3167 0 10.6636 0ZM10.0125 12.9534H5.4525C3.82846 12.9534 2.5141 11.6366 2.5141 10.0149V5.45494C2.5141 3.83089 3.83089 2.51654 5.4525 2.51654H10.0125C11.6366 2.51654 12.9509 3.83333 12.9509 5.45494V10.0149C12.9534 11.6366 11.6366 12.9534 10.0125 12.9534Z" fill="white"/>
<path d="M8.83227 4.71607H6.63518C5.57443 4.71607 4.71607 5.57443 4.71607 6.63518V8.83227C4.71607 9.89302 5.57443 10.7514 6.63518 10.7514H8.83227C9.89302 10.7514 10.7514 9.89302 10.7514 8.83227V6.63518C10.7514 5.57443 9.89302 4.71607 8.83227 4.71607Z" fill="white"/>
<path d="M30.5325 4.80386V10.666C30.5325 13.3191 32.6833 15.4699 35.3364 15.4699H41.1986C43.8517 15.4699 46.0024 13.3191 46.0024 10.666V4.80386C46.0024 2.15076 43.8517 0 41.1986 0H35.3364C32.6833 0 30.5325 2.15076 30.5325 4.80386ZM40.5475 12.9534H35.9875C34.3634 12.9534 33.0491 11.6366 33.0491 10.0149V5.45494C33.0491 3.83089 34.3659 2.51654 35.9875 2.51654H40.5475C42.1715 2.51654 43.4859 3.83333 43.4859 5.45494V10.0149C43.4859 11.6366 42.1691 12.9534 40.5475 12.9534Z" fill="white"/>
<path d="M39.3648 4.71607H37.1677C36.107 4.71607 35.2486 5.57443 35.2486 6.63518V8.83227C35.2486 9.89302 36.107 10.7514 37.1677 10.7514H39.3648C40.4256 10.7514 41.2839 9.89302 41.2839 8.83227V6.63518C41.2864 5.57443 40.4256 4.71607 39.3648 4.71607Z" fill="white"/>
<path d="M4.80386 46H10.666C13.3191 46 15.4699 43.8492 15.4699 41.1961V35.334C15.4699 32.6809 13.3191 30.5301 10.666 30.5301H4.80386C2.15076 30.5301 0 32.6809 0 35.334V41.1961C0 43.8517 2.15076 46 4.80386 46ZM5.45494 33.0491H10.0149C11.639 33.0491 12.9534 34.3659 12.9534 35.9875V40.5475C12.9534 42.1715 11.6366 43.4859 10.0149 43.4859H5.45494C3.83089 43.4859 2.51654 42.1691 2.51654 40.5475V35.9875C2.5141 34.3634 3.83089 33.0491 5.45494 33.0491Z" fill="white"/>
<path d="M6.63518 41.2864H8.83227C9.89302 41.2864 10.7514 40.428 10.7514 39.3673V37.1702C10.7514 36.1094 9.89302 35.2511 8.83227 35.2511H6.63518C5.57443 35.2511 4.71607 36.1094 4.71607 37.1702V39.3673C4.71607 40.4256 5.57443 41.2864 6.63518 41.2864Z" fill="white"/>
<path d="M12.8339 23.0219H10.2686V25.5873H12.8339V23.0219Z" fill="white"/>
<path d="M7.70324 23.3048V23.0219H10.2686V20.8249H12.8339V18.2571H10.2686H7.70324V20.4566V20.7395H5.1355V20.4957V18.2571H2.57019V20.4957V20.8249V23.0219H2.56531V20.7395H0V23.3048H0.00487702V25.5897H0V28.155H2.56531V25.5897H2.57019V23.061H5.1355V23.3048V25.5897H2.57019V28.155H5.1355H7.70324H10.2686V25.5897H7.70324V23.3048Z" fill="white"/>
<path d="M30.7959 30.7203H28.2306V33.2856H30.7959V30.7203Z" fill="white"/>
<path d="M38.4943 23.2682H35.929V25.8335H38.4943V23.2682Z" fill="white"/>
<path d="M28.0453 5.24523V2.67992H25.48V5.24523V7.81297H28.0453V5.24523Z" fill="white"/>
<path d="M23.0366 10.3783V7.81298V5.24523H20.4688V7.81298H17.9035V10.3783H20.4688H23.0366Z" fill="white"/>
<path d="M43.6273 18.1352H41.062H38.4943H35.929V20.7005H38.4943H41.062V23.2682H43.4347V25.8335H41.062H38.4943V28.155H36.0509H35.929V25.8335H33.3636V28.155V28.3989V30.7203V33.2881H30.7959V35.8534H33.3636H35.929V38.2968H33.4856H33.4027H30.9203H30.7959H28.3525H28.2306V40.8645V43.4298H25.6653V45.9951H28.2306H30.7959H33.3636V43.4298H30.9203V40.8645H33.4027H33.4856H35.968V38.4187H38.4943V35.8534V33.2881H35.929V30.7203H36.0509H38.4943V33.2881H41.062H43.4347V33.2905V35.7314H41.062V38.2968V40.8645H38.4943V43.4298H41.062V45.9951H43.4347H43.6273H46V43.4298V40.8645V38.2968H43.6273V35.8534H46V33.2905V33.2881V30.7252H43.6273V30.7203H41.0986V28.3989H43.4347H43.6273H46V25.8335V23.2682V20.7005H43.6273V18.1352Z" fill="white"/>
<path d="M25.6653 40.8645H23.1V43.4298H25.6653V40.8645Z" fill="white"/>
<path d="M20.5322 40.9011V40.8621H23.0975V38.4187H25.6629V35.9753H28.2282V35.8534V33.41V33.2881H25.6629V30.7618V30.7228H28.2282V28.2794H30.7935V25.836H33.3588V23.2682H35.9241V20.7029H33.3588H30.7935V20.581V18.2595H28.2282V15.6918H25.6629H23.1H20.5347V13.1874H17.9669V15.6894V15.7528V18.2547H15.4016V20.4542V20.82V23.0195V25.5848H12.8339V28.1501H15.3992H17.9645V25.5848V25.4629H20.5322V25.7067V28.1891V28.2721V30.7154H20.5274V28.1867H17.962V30.752H17.9669V33.2783H17.962V35.8436H20.5274V33.2783H20.5322V30.752H23.0975V33.2783H20.5322V35.8436V38.287V38.326H17.9669V40.8548V40.8938V43.4298V45.9951H20.5322H23.0975V43.4298H20.5322V40.9011ZM23.1 25.7116V23.3902V23.1463H25.6653V20.8249H23.1H20.5347V22.9025H17.9694V20.8249H20.5322V18.2595H23.0975H25.6629V20.8249H28.2282V23.1463V25.7116H25.6629V28.155V28.194H23.1V25.7116Z" fill="white"/>
<path d="M35.968 40.8669H33.4027V43.4347H35.929V45.9951H38.4943V43.4298H35.968V40.8669Z" fill="white"/>
<path d="M28.0453 10.3783H25.48V12.9436H28.0453V10.3783Z" fill="white"/>
<path d="M20.4688 2.67992H17.9035V5.24523H20.4688V2.67992Z" fill="white"/>
<path d="M23.0366 2.67504H25.48H25.5629H28.0453V0.109734H25.5629H25.48H22.9976V0.114611H20.4688V2.67992H23.0366V2.67504Z" fill="white"/>
</svg>
