<svg width="24" height="44" viewBox="0 0 24 44" fill="none" xmlns="http://www.w3.org/2000/svg">
<path d="M0 15C0 13.8954 0.895431 13 2 13H22C23.1046 13 24 13.8954 24 15V37C24 38.1046 23.1046 39 22 39H16.5413C15.8887 39 15.2771 39.3184 14.9028 39.8531L13.5317 41.8119C12.7663 42.9052 11.1652 42.9565 10.3315 41.9143L8.60049 39.7506C8.22094 39.2762 7.64632 39 7.03875 39H2C0.895431 39 0 38.1046 0 37V15Z" fill="#D77950"/>
<path d="M5.1416 8H3.65723L3.66699 7.2334H5.1416C5.64941 7.2334 6.07259 7.1276 6.41113 6.91602C6.74967 6.70117 7.00358 6.40169 7.17285 6.01758C7.34538 5.63021 7.43164 5.17773 7.43164 4.66016V4.22559C7.43164 3.81868 7.38281 3.45736 7.28516 3.1416C7.1875 2.82259 7.04427 2.55404 6.85547 2.33594C6.66667 2.11458 6.43555 1.94694 6.16211 1.83301C5.89193 1.71908 5.58105 1.66211 5.22949 1.66211H3.62793V0.890625H5.22949C5.69499 0.890625 6.11979 0.96875 6.50391 1.125C6.88802 1.27799 7.21842 1.50098 7.49512 1.79395C7.77507 2.08366 7.98991 2.43522 8.13965 2.84863C8.28939 3.25879 8.36426 3.72103 8.36426 4.23535V4.66016C8.36426 5.17448 8.28939 5.63835 8.13965 6.05176C7.98991 6.46191 7.77344 6.81185 7.49023 7.10156C7.21029 7.39128 6.87174 7.61426 6.47461 7.77051C6.08073 7.9235 5.63639 8 5.1416 8ZM4.16016 0.890625V8H3.21777V0.890625H4.16016ZM9.4043 5.41699V5.30469C9.4043 4.92383 9.45964 4.57064 9.57031 4.24512C9.68099 3.91634 9.84049 3.63151 10.0488 3.39062C10.2572 3.14648 10.5094 2.95768 10.8057 2.82422C11.1019 2.6875 11.4339 2.61914 11.8018 2.61914C12.1729 2.61914 12.5065 2.6875 12.8027 2.82422C13.1022 2.95768 13.3561 3.14648 13.5645 3.39062C13.776 3.63151 13.9372 3.91634 14.0479 4.24512C14.1585 4.57064 14.2139 4.92383 14.2139 5.30469V5.41699C14.2139 5.79785 14.1585 6.15104 14.0479 6.47656C13.9372 6.80208 13.776 7.08691 13.5645 7.33105C13.3561 7.57194 13.1038 7.76074 12.8076 7.89746C12.5146 8.03092 12.1826 8.09766 11.8115 8.09766C11.4404 8.09766 11.1068 8.03092 10.8105 7.89746C10.5143 7.76074 10.2604 7.57194 10.0488 7.33105C9.84049 7.08691 9.68099 6.80208 9.57031 6.47656C9.45964 6.15104 9.4043 5.79785 9.4043 5.41699ZM10.3076 5.30469V5.41699C10.3076 5.68066 10.3385 5.92969 10.4004 6.16406C10.4622 6.39518 10.555 6.60026 10.6787 6.7793C10.8057 6.95833 10.9635 7.09993 11.1523 7.2041C11.3411 7.30501 11.5609 7.35547 11.8115 7.35547C12.0589 7.35547 12.2754 7.30501 12.4609 7.2041C12.6497 7.09993 12.806 6.95833 12.9297 6.7793C13.0534 6.60026 13.1462 6.39518 13.208 6.16406C13.2731 5.92969 13.3057 5.68066 13.3057 5.41699V5.30469C13.3057 5.04427 13.2731 4.7985 13.208 4.56738C13.1462 4.33301 13.0518 4.1263 12.9248 3.94727C12.8011 3.76497 12.6449 3.62174 12.4561 3.51758C12.2705 3.41341 12.0524 3.36133 11.8018 3.36133C11.5544 3.36133 11.3363 3.41341 11.1475 3.51758C10.9619 3.62174 10.8057 3.76497 10.6787 3.94727C10.555 4.1263 10.4622 4.33301 10.4004 4.56738C10.3385 4.7985 10.3076 5.04427 10.3076 5.30469ZM16.3281 0.5V8H15.4199V0.5H16.3281ZM21.0107 6.7793V2.7168H21.9189V8H21.0547L21.0107 6.7793ZM21.1816 5.66602L21.5576 5.65625C21.5576 6.00781 21.5202 6.33333 21.4453 6.63281C21.3737 6.92904 21.2565 7.1862 21.0938 7.4043C20.931 7.6224 20.7178 7.79329 20.4541 7.91699C20.1904 8.03743 19.8698 8.09766 19.4922 8.09766C19.235 8.09766 18.999 8.06022 18.7842 7.98535C18.5726 7.91048 18.3903 7.79492 18.2373 7.63867C18.0843 7.48242 17.9655 7.27897 17.8809 7.02832C17.7995 6.77767 17.7588 6.47656 17.7588 6.125V2.7168H18.6621V6.13477C18.6621 6.3724 18.6882 6.56934 18.7402 6.72559C18.7956 6.87858 18.8688 7.00065 18.96 7.0918C19.0544 7.17969 19.1585 7.24154 19.2725 7.27734C19.3896 7.31315 19.5101 7.33105 19.6338 7.33105C20.0179 7.33105 20.3223 7.25781 20.5469 7.11133C20.7715 6.96159 20.9326 6.76139 21.0303 6.51074C21.1312 6.25684 21.1816 5.97526 21.1816 5.66602Z" fill="#E8DFDD"/>
<path d="M8.5 26L15 18L13 25L16.5 26L8.5 34.5L11.5 27.5L8.5 26Z" fill="white"/>
</svg>
