<svg width="24" height="44" viewBox="0 0 24 44" fill="none" xmlns="http://www.w3.org/2000/svg">
<path d="M0 15C0 13.8954 0.895431 13 2 13H22C23.1046 13 24 13.8954 24 15V37C24 38.1046 23.1046 39 22 39H16.5413C15.8887 39 15.2771 39.3184 14.9028 39.8531L13.5317 41.8119C12.7663 42.9052 11.1652 42.9565 10.3315 41.9143L8.60049 39.7506C8.22094 39.2762 7.64632 39 7.03875 39H2C0.895431 39 0 38.1046 0 37V15Z" fill="#27AE60"/>
<path d="M6.80957 4.6748H5.00781L4.99805 3.91797H6.63379C6.90397 3.91797 7.13997 3.8724 7.3418 3.78125C7.54362 3.6901 7.69987 3.5599 7.81055 3.39062C7.92448 3.2181 7.98145 3.01302 7.98145 2.77539C7.98145 2.51497 7.93099 2.30339 7.83008 2.14062C7.73242 1.97461 7.58105 1.85417 7.37598 1.7793C7.17415 1.70117 6.91699 1.66211 6.60449 1.66211H5.21777V8H4.27539V0.890625H6.60449C6.96908 0.890625 7.2946 0.92806 7.58105 1.00293C7.86751 1.07454 8.11003 1.18848 8.30859 1.34473C8.51042 1.49772 8.66341 1.69303 8.76758 1.93066C8.87174 2.16829 8.92383 2.45312 8.92383 2.78516C8.92383 3.07812 8.84896 3.34342 8.69922 3.58105C8.54948 3.81543 8.34115 4.00749 8.07422 4.15723C7.81055 4.30697 7.5013 4.40299 7.14648 4.44531L6.80957 4.6748ZM6.76562 8H4.63672L5.16895 7.2334H6.76562C7.0651 7.2334 7.31901 7.18132 7.52734 7.07715C7.73893 6.97298 7.90007 6.8265 8.01074 6.6377C8.12142 6.44564 8.17676 6.2194 8.17676 5.95898C8.17676 5.69531 8.12956 5.46745 8.03516 5.27539C7.94076 5.08333 7.79264 4.93522 7.59082 4.83105C7.389 4.72689 7.12858 4.6748 6.80957 4.6748H5.4668L5.47656 3.91797H7.3125L7.5127 4.19141C7.85449 4.2207 8.14421 4.31836 8.38184 4.48438C8.61947 4.64714 8.80013 4.85547 8.92383 5.10938C9.05078 5.36328 9.11426 5.64323 9.11426 5.94922C9.11426 6.39193 9.0166 6.76628 8.82129 7.07227C8.62923 7.375 8.35742 7.60612 8.00586 7.76562C7.6543 7.92188 7.24089 8 6.76562 8ZM10.1299 5.41699V5.30469C10.1299 4.92383 10.1852 4.57064 10.2959 4.24512C10.4066 3.91634 10.5661 3.63151 10.7744 3.39062C10.9827 3.14648 11.235 2.95768 11.5312 2.82422C11.8275 2.6875 12.1595 2.61914 12.5273 2.61914C12.8984 2.61914 13.2321 2.6875 13.5283 2.82422C13.8278 2.95768 14.0817 3.14648 14.29 3.39062C14.5016 3.63151 14.6628 3.91634 14.7734 4.24512C14.8841 4.57064 14.9395 4.92383 14.9395 5.30469V5.41699C14.9395 5.79785 14.8841 6.15104 14.7734 6.47656C14.6628 6.80208 14.5016 7.08691 14.29 7.33105C14.0817 7.57194 13.8294 7.76074 13.5332 7.89746C13.2402 8.03092 12.9082 8.09766 12.5371 8.09766C12.166 8.09766 11.8324 8.03092 11.5361 7.89746C11.2399 7.76074 10.986 7.57194 10.7744 7.33105C10.5661 7.08691 10.4066 6.80208 10.2959 6.47656C10.1852 6.15104 10.1299 5.79785 10.1299 5.41699ZM11.0332 5.30469V5.41699C11.0332 5.68066 11.0641 5.92969 11.126 6.16406C11.1878 6.39518 11.2806 6.60026 11.4043 6.7793C11.5312 6.95833 11.6891 7.09993 11.8779 7.2041C12.0667 7.30501 12.2865 7.35547 12.5371 7.35547C12.7845 7.35547 13.001 7.30501 13.1865 7.2041C13.3753 7.09993 13.5316 6.95833 13.6553 6.7793C13.779 6.60026 13.8717 6.39518 13.9336 6.16406C13.9987 5.92969 14.0312 5.68066 14.0312 5.41699V5.30469C14.0312 5.04427 13.9987 4.7985 13.9336 4.56738C13.8717 4.33301 13.7773 4.1263 13.6504 3.94727C13.5267 3.76497 13.3704 3.62174 13.1816 3.51758C12.9961 3.41341 12.778 3.36133 12.5273 3.36133C12.2799 3.36133 12.0618 3.41341 11.873 3.51758C11.6875 3.62174 11.5312 3.76497 11.4043 3.94727C11.2806 4.1263 11.1878 4.33301 11.126 4.56738C11.0641 4.7985 11.0332 5.04427 11.0332 5.30469ZM19.1484 6.59863C19.1484 6.46842 19.1191 6.34798 19.0605 6.2373C19.0052 6.12337 18.8896 6.02083 18.7139 5.92969C18.5413 5.83529 18.2809 5.75391 17.9326 5.68555C17.6396 5.6237 17.3743 5.55046 17.1367 5.46582C16.9023 5.38118 16.7021 5.27865 16.5361 5.1582C16.3734 5.03776 16.248 4.89616 16.1602 4.7334C16.0723 4.57064 16.0283 4.38021 16.0283 4.16211C16.0283 3.95378 16.0739 3.75684 16.165 3.57129C16.2594 3.38574 16.3913 3.22135 16.5605 3.07812C16.7331 2.9349 16.9398 2.82259 17.1807 2.74121C17.4215 2.65983 17.6901 2.61914 17.9863 2.61914C18.4095 2.61914 18.7708 2.69401 19.0703 2.84375C19.3698 2.99349 19.5993 3.19368 19.7588 3.44434C19.9183 3.69173 19.998 3.9668 19.998 4.26953H19.0947C19.0947 4.12305 19.0508 3.98145 18.9629 3.84473C18.8783 3.70475 18.7529 3.58919 18.5869 3.49805C18.4242 3.4069 18.224 3.36133 17.9863 3.36133C17.7357 3.36133 17.5322 3.40039 17.376 3.47852C17.223 3.55339 17.1107 3.64941 17.0391 3.7666C16.9707 3.88379 16.9365 4.00749 16.9365 4.1377C16.9365 4.23535 16.9528 4.32324 16.9854 4.40137C17.0212 4.47624 17.083 4.54622 17.1709 4.61133C17.2588 4.67318 17.3825 4.73177 17.542 4.78711C17.7015 4.84245 17.9049 4.89779 18.1523 4.95312C18.5853 5.05078 18.9417 5.16797 19.2217 5.30469C19.5016 5.44141 19.71 5.60905 19.8467 5.80762C19.9834 6.00618 20.0518 6.24707 20.0518 6.53027C20.0518 6.76139 20.0029 6.97298 19.9053 7.16504C19.8109 7.3571 19.6725 7.52311 19.4902 7.66309C19.3112 7.7998 19.0964 7.90723 18.8457 7.98535C18.5983 8.06022 18.32 8.09766 18.0107 8.09766C17.5452 8.09766 17.1514 8.01465 16.8291 7.84863C16.5068 7.68262 16.2627 7.46777 16.0967 7.2041C15.9307 6.94043 15.8477 6.66211 15.8477 6.36914H16.7559C16.7689 6.61654 16.8405 6.81348 16.9707 6.95996C17.1009 7.10319 17.2604 7.20573 17.4492 7.26758C17.638 7.32617 17.8252 7.35547 18.0107 7.35547C18.2581 7.35547 18.4648 7.32292 18.6309 7.25781C18.8001 7.19271 18.9287 7.10319 19.0166 6.98926C19.1045 6.87533 19.1484 6.74512 19.1484 6.59863ZM17.8301 8.04883H18.4795L18.4209 8.30762C18.6097 8.34017 18.7806 8.41829 18.9336 8.54199C19.0898 8.66569 19.168 8.86914 19.168 9.15234C19.168 9.30534 19.1354 9.44368 19.0703 9.56738C19.0085 9.69434 18.9157 9.80176 18.792 9.88965C18.6683 9.98079 18.5137 10.0508 18.3281 10.0996C18.1458 10.1484 17.9326 10.1729 17.6885 10.1729L17.6543 9.65039C17.804 9.65039 17.9391 9.63411 18.0596 9.60156C18.1833 9.56901 18.2809 9.51693 18.3525 9.44531C18.4274 9.3737 18.4648 9.28092 18.4648 9.16699C18.4648 9.05957 18.4372 8.97493 18.3818 8.91309C18.3265 8.85124 18.2402 8.80404 18.123 8.77148C18.0091 8.74219 17.861 8.72103 17.6787 8.70801L17.8301 8.04883Z" fill="#E8DFDD"/>
<path d="M8.5 26L15 18L13 25L16.5 26L8.5 34.5L11.5 27.5L8.5 26Z" fill="white"/>
</svg>
